# xmcd
#
# Track frame offsets: 
#        150
#        14380
#        28985
#        41387
#        55305
#        84997
#        121597
#        137960
#        152810
#        170330
#        185260
#        196942
#        210100
#        234312
#        247907
#
# Disc length: 3489 seconds
#
# Revision: 0
# Processed by: cddbd v1.5.2PL0 Copyright (c) Steve Scherf et al.
# Submitted via: ExactAudioCopy v1.1
#
DISCID=b50d9f0f
DTITLE=Laura Lee - Love Lights Queen
DYEAR=1972
DGENRE=Soul
TTITLE0=Wedrock Is A Padlock
TTITLE1=Women's Love Rights
TTITLE2=(Don't Be Sorry) Be Careful If You Can't
TTITLE3=Love And Liberty
TTITLE4=It's Not What You Fall For
TTITLE5=Since I Fell For You
TTITLE6=Two Lovely Pillows
TTITLE7=That's How Strong My Love Is
TTITLE8=Her Picture Matches Mine
TTITLE9=Rip Off
TTITLE10=Workin' And Lovin' Together
TTITLE11=If You Can Beat Me Rockin'
TTITLE12=Workin' And Lovin' Together
TTITLE13=I Can't Hold On Much Longer
TTITLE14=Don't Leave Me Starving For Your Love
EXTD=
EXTT0=
EXTT1=
EXTT2=
EXTT3=
EXTT4=
EXTT5=
EXTT6=
EXTT7=
EXTT8=
EXTT9=
EXTT10=
EXTT11=
EXTT12=
EXTT13=
EXTT14=
PLAYORDER=
